<svg width="97" height="24" viewBox="0 0 97 24" fill="none" xmlns="http://www.w3.org/2000/svg">
<path d="M1.21387 12.0444L12.9619 17.3471V18.2114L0.701172 12.6596V12.0444H1.21387ZM12.9619 7.23969L1.22852 12.5424H0.701172V11.9272L12.9619 6.39008V7.23969ZM42.2002 21.3315C42.2002 21.1069 42.2783 20.9164 42.4346 20.7602C42.5908 20.5942 42.7812 20.5112 43.0059 20.5112C43.2305 20.5112 43.4209 20.5893 43.5771 20.7455C43.7432 20.9018 43.8262 21.0971 43.8262 21.3315C43.8262 21.5561 43.7432 21.7465 43.5771 21.9028C43.4209 22.059 43.2305 22.1371 43.0059 22.1371C42.7812 22.1371 42.5908 22.059 42.4346 21.9028C42.2783 21.7465 42.2002 21.5561 42.2002 21.3315ZM62.1953 16.937C62.1953 16.2631 62.0781 15.6625 61.8438 15.1352C61.6094 14.6078 61.2334 14.1342 60.7158 13.7143C60.1982 13.2944 59.5195 12.9086 58.6797 12.5571C57.8496 12.2055 56.8291 11.8637 55.6182 11.5317C54.5342 11.2387 53.5576 10.9262 52.6885 10.5942C51.8193 10.2524 51.0771 9.86176 50.4619 9.4223C49.8564 8.98285 49.3926 8.46039 49.0703 7.85492C48.748 7.23969 48.5869 6.50238 48.5869 5.64301C48.5869 4.83246 48.7627 4.10492 49.1143 3.46039C49.4756 2.81586 49.9736 2.26898 50.6084 1.81976C51.2529 1.37054 52.0049 1.02875 52.8643 0.794373C53.7236 0.550232 54.6562 0.428162 55.6621 0.428162C57.0488 0.428162 58.2744 0.691833 59.3389 1.21918C60.4033 1.74652 61.2383 2.48383 61.8438 3.43109C62.459 4.36859 62.7666 5.46722 62.7666 6.72699H61.9756C61.9756 5.6723 61.7119 4.72992 61.1846 3.89984C60.6572 3.06976 59.9199 2.41547 58.9727 1.93695C58.0352 1.45844 56.9316 1.21918 55.6621 1.21918C54.3242 1.21918 53.1865 1.42426 52.249 1.83441C51.3115 2.24457 50.5986 2.78656 50.1104 3.46039C49.6221 4.12445 49.3779 4.84222 49.3779 5.61371C49.3779 6.18011 49.4756 6.70746 49.6709 7.19574C49.876 7.68402 50.2178 8.13812 50.6963 8.55804C51.1748 8.9682 51.834 9.35883 52.6738 9.72992C53.5137 10.0912 54.5684 10.4379 55.8379 10.77C56.8926 11.0434 57.8545 11.351 58.7236 11.6928C59.6025 12.0346 60.3594 12.4399 60.9941 12.9086C61.6387 13.3774 62.1318 13.9389 62.4736 14.5932C62.8252 15.2377 63.001 16.0092 63.001 16.9077C63.001 17.7768 62.8105 18.5483 62.4297 19.2221C62.0586 19.8959 61.541 20.4672 60.877 20.936C60.2129 21.395 59.4414 21.7465 58.5625 21.9907C57.6934 22.225 56.7607 22.3422 55.7646 22.3422C54.8564 22.3422 53.9385 22.2348 53.0107 22.02C52.083 21.8051 51.2334 21.4584 50.4619 20.9799C49.6904 20.4916 49.0703 19.8422 48.6016 19.0317C48.1328 18.2211 47.8984 17.2202 47.8984 16.0287H48.6895C48.6895 17.0932 48.9092 17.9819 49.3486 18.6948C49.7881 19.4077 50.3594 19.9741 51.0625 20.394C51.7754 20.8041 52.542 21.102 53.3623 21.2875C54.1924 21.4633 54.9932 21.5512 55.7646 21.5512C57.0146 21.5512 58.123 21.3559 59.0898 20.9653C60.0566 20.5746 60.8135 20.0327 61.3604 19.3393C61.917 18.6459 62.1953 17.8452 62.1953 16.937ZM81.8096 0.72113L72.9033 23.8803H72.0391L80.9453 0.72113H81.8096ZM96.2529 12.5278L84.5488 7.21039V6.34613L96.7949 11.8832V12.5131L96.2529 12.5278ZM84.5488 17.3032L96.2969 11.9711H96.7949V12.6157L84.5488 18.1674V17.3032Z" fill="white"/>
<path d="M31.4775 0.72113V22.0493H30.6865V0.72113H31.4775ZM39.2412 0.72113V1.51215H22.9229V0.72113H39.2412Z" fill="#985EFF"/>
</svg>
