<svg width="41" height="46" viewBox="0 0 41 46" fill="none" xmlns="http://www.w3.org/2000/svg">
<path d="M18.7803 19.4901C18.0929 19.887 17.5386 20.4788 17.1876 21.1906C16.8366 21.9024 16.7046 22.7023 16.8083 23.4891C16.912 24.2759 17.2468 25.0143 17.7704 25.6109C18.2939 26.2075 18.9826 26.6355 19.7495 26.8408C20.5163 27.0461 21.3269 27.0195 22.0786 26.7643C22.8303 26.5092 23.4895 26.0369 23.9727 25.4072C24.4559 24.7776 24.7415 24.0188 24.7934 23.2269C24.8452 22.435 24.661 21.6455 24.264 20.9582C24.0004 20.5019 23.6495 20.1019 23.2312 19.7811C22.8129 19.4604 22.3356 19.2251 21.8264 19.0888C21.3172 18.9524 20.7861 18.9177 20.2634 18.9866C19.7408 19.0554 19.2368 19.2265 18.7803 19.4901ZM36.776 23.8435C36.5094 23.5423 36.2314 23.2405 35.9422 22.938C36.1468 22.7235 36.3448 22.509 36.536 22.2944C40.1452 18.2408 41.6688 14.1752 40.2571 11.7306C38.9035 9.38703 34.8774 8.68844 29.8377 9.66886C29.3411 9.76614 28.8472 9.87574 28.356 9.99767C28.2621 9.67386 28.1621 9.35172 28.0561 9.03124C26.3415 3.88028 23.5792 0.53125 20.7569 0.53125C18.0495 0.53125 15.4332 3.6704 13.7646 8.52654C13.6006 9.00559 13.4486 9.4883 13.3087 9.97468C12.9801 9.89406 12.6505 9.81977 12.3199 9.75181C7.00221 8.66046 2.72224 9.37903 1.30959 11.8246C-0.0410872 14.1702 1.37157 18.0029 4.74475 21.8727C5.078 22.2558 5.42192 22.6302 5.7765 22.996C5.3596 23.4248 4.9647 23.8545 4.59679 24.2802C1.30459 28.095 -0.0270905 31.8658 1.32158 34.2014C2.71424 36.613 6.93722 37.3995 12.077 36.3911C12.4935 36.3085 12.9078 36.2155 13.3197 36.1123C13.4703 36.6386 13.6369 37.1606 13.8196 37.6783C15.4811 42.4355 18.0825 45.4738 20.7809 45.4738C23.5662 45.4738 26.3595 42.2097 28.0511 37.2526C28.1851 36.8608 28.311 36.4531 28.431 36.0353C28.9642 36.1686 29.4998 36.2862 30.0376 36.3881C34.9904 37.3246 38.9215 36.588 40.2671 34.2514C41.6568 31.8378 40.2241 27.7892 36.773 23.8495L36.776 23.8435ZM2.97318 12.781C3.83997 11.2759 7.34112 10.6883 11.932 11.6307C12.2253 11.6913 12.5252 11.758 12.8318 11.8306C12.3835 13.8129 12.0672 15.8228 11.885 17.847C10.2283 19.012 8.64869 20.2829 7.15617 21.6518C6.82758 21.312 6.50766 20.9639 6.1964 20.6074C3.2971 17.2944 2.15938 14.1942 2.97318 12.781ZM11.7091 25.6514C10.5613 24.7829 9.4946 23.8925 8.52684 22.998C9.4946 22.1085 10.5613 21.222 11.7061 20.3556C11.6647 21.2384 11.6444 22.1215 11.6451 23.005C11.6457 23.8885 11.6671 24.7706 11.7091 25.6514ZM11.7091 34.5052C9.76078 34.9382 7.74942 35.009 5.7755 34.7141C5.23438 34.6719 4.70765 34.5193 4.22789 34.2656C3.74812 34.0118 3.32551 33.6624 2.98618 33.239C2.16838 31.8218 3.23712 28.7946 6.05243 25.5315C6.40635 25.1224 6.77293 24.7227 7.15217 24.3322C8.64482 25.7084 10.2269 26.9845 11.888 28.152C12.0726 30.203 12.3925 32.2395 12.8458 34.2484C12.4699 34.3423 12.0916 34.4269 11.7111 34.5022L11.7091 34.5052ZM27.6682 16.4419C26.9144 15.9668 26.1512 15.5071 25.3787 15.0627C24.6183 14.6256 23.8491 14.2045 23.0713 13.7994C24.404 13.2388 25.7147 12.761 26.9794 12.3713C27.2777 13.7157 27.5079 15.0743 27.6692 16.4419H27.6682ZM15.5791 9.14617C17.0088 4.98662 19.1253 2.45012 20.7569 2.45012C22.4944 2.45012 24.7559 5.1875 26.2285 9.63488C26.3245 9.92471 26.4152 10.2162 26.5005 10.5094C24.5612 11.1106 22.6639 11.8394 20.8209 12.6911C18.9854 11.8291 17.0939 11.0918 15.1592 10.4844C15.2885 10.036 15.4288 9.59057 15.5801 9.14817L15.5791 9.14617ZM14.6793 12.3443C15.9988 12.7594 17.2965 13.2407 18.5674 13.7864C16.9931 14.5986 15.4602 15.4834 13.9685 16.4409C14.1465 15.0107 14.3864 13.6375 14.6803 12.3473L14.6793 12.3443ZM13.9685 29.5571C14.713 30.0335 15.4685 30.4926 16.235 30.9343C17.0168 31.3841 17.8089 31.8151 18.6114 32.2276C17.3322 32.7929 16.0248 33.2923 14.6943 33.7237C14.3944 32.4125 14.1515 31.0183 13.9695 29.5601L13.9685 29.5571ZM26.2315 36.627C25.6337 38.5301 24.6905 40.307 23.4492 41.8689C23.1423 42.3163 22.747 42.696 22.2875 42.9846C21.828 43.2732 21.3142 43.4646 20.7779 43.5469C19.1413 43.5469 17.0518 41.1093 15.6311 37.0417C15.4638 36.5607 15.3099 36.0753 15.1692 35.5856C17.1132 34.9586 19.0124 34.2007 20.8538 33.3169C22.7122 34.1743 24.6248 34.9088 26.5795 35.5156C26.4728 35.8887 26.3572 36.2589 26.2325 36.626L26.2315 36.627ZM27.0453 33.6517C25.7657 33.252 24.437 32.7702 23.0843 32.2016C23.8468 31.8018 24.6133 31.3784 25.3837 30.9313C26.1776 30.4736 26.9507 30.0042 27.7032 29.5232C27.553 30.9101 27.3318 32.2884 27.0403 33.6527L27.0453 33.6517ZM28.0451 22.996C28.0451 24.3605 28.0024 25.7241 27.9171 27.0866C26.8094 27.8361 25.6407 28.5677 24.424 29.2693C23.2073 29.9709 22.0126 30.6105 20.8349 31.1922C19.5958 30.5985 18.3808 29.9589 17.1897 29.2733C15.9987 28.5877 14.843 27.8618 13.7226 27.0956C13.6193 25.7337 13.5673 24.3679 13.5666 22.998C13.5666 21.6321 13.6176 20.2663 13.7196 18.9004C14.8263 18.1449 15.987 17.4133 17.1867 16.7207C18.3864 16.0281 19.6071 15.3855 20.8159 14.8048C22.0396 15.3991 23.2413 16.0361 24.421 16.7157C25.6007 17.3953 26.7611 18.1132 27.9021 18.8694C28.0001 20.2393 28.0491 21.6112 28.0491 22.985L28.0451 22.996ZM30.1956 11.5528C34.5135 10.7132 37.7697 11.2779 38.5855 12.6901C39.4543 14.1942 38.2086 17.5172 35.0934 21.0182C34.9214 21.2114 34.7428 21.4053 34.5575 21.5998C33.0392 20.2277 31.4292 18.9605 29.7387 17.8071C29.5679 15.8051 29.2633 13.8168 28.8269 11.8556C29.2935 11.741 29.7497 11.641 30.1956 11.5557V11.5528ZM29.9037 20.2806C31.0438 21.1127 32.14 22.0034 33.1879 22.949C32.1445 23.9102 31.0516 24.8163 29.9136 25.6634C29.9483 24.774 29.9653 23.8838 29.9646 22.993C29.9646 22.0882 29.944 21.1837 29.9027 20.2796L29.9037 20.2806ZM38.6015 33.2869C37.7847 34.7051 34.6285 35.2968 30.3925 34.4952C29.9073 34.4039 29.4094 34.295 28.8989 34.1684C29.3246 32.1818 29.6155 30.1688 29.7697 28.143C31.4558 26.9692 33.0592 25.6809 34.5685 24.2872C34.8351 24.5617 35.0867 24.8349 35.3233 25.1068C36.6742 26.5751 37.743 28.2796 38.4766 30.1348C38.7112 30.6239 38.843 31.1558 38.8638 31.6978C38.8846 32.2398 38.794 32.7803 38.5975 33.2859L38.6015 33.2869Z" fill="#1E1E1E"/>
</svg>
