<svg width="334" height="514" viewBox="0 0 334 514" fill="none" xmlns="http://www.w3.org/2000/svg">
<g opacity="0.1" filter="url(#filter0_f_821_183)">
<path d="M264.995 -19.6286C239.976 34.1495 230.594 54.2159 223.446 67.8611C198.874 117.626 173.855 171.003 175.196 171.805C175.642 172.207 189.045 180.233 204.235 189.464C218.978 198.694 233.721 206.319 235.955 206.319C238.636 206.319 245.337 200.3 251.145 193.076C261.867 179.029 263.208 177.825 278.398 160.167C290.907 145.719 381.153 33.7481 385.62 26.9256C387.854 23.7149 384.28 19.7016 376.238 16.0897C363.729 10.4711 362.389 10.4711 353.007 19.7016C347.199 25.3202 341.838 29.3335 341.391 28.5309C340.498 27.7282 344.518 14.8857 350.773 -0.766127L361.495 -28.4578L349.88 -15.214C343.178 -7.58871 332.009 4.04982 324.861 10.8724L311.905 23.7149L323.521 4.45115C336.03 -16.4179 339.157 -27.6551 329.775 -19.2272C321.734 -12.0033 306.097 -13.2073 289.567 -22.4379C270.803 -32.4711 271.249 -32.4711 264.995 -19.6286Z" fill="#985EFF"/>
<path d="M159.112 180.634C150.624 187.858 150.177 191.872 156.878 203.109C160.452 209.129 160.452 210.734 156.878 208.727C154.198 207.122 124.711 230.399 88.9704 262.104L25.5302 318.691L22.4029 391.733C20.1691 441.498 17.9352 465.176 14.3611 466.38C11.2338 467.183 9 472.802 9 478.42C9 488.052 10.3403 487.249 20.1691 471.196C26.4237 461.163 32.6784 449.926 34.4654 445.913C35.8057 442.301 38.4863 439.09 40.2733 439.09C42.0604 439.09 44.741 435.879 46.0813 431.866C47.8683 428.254 54.123 417.017 60.3776 406.984C82.269 372.871 86.7366 364.844 86.7366 356.818C87.1834 344.778 109.075 345.58 110.862 357.62C111.755 364.443 109.521 367.252 101.48 368.858C94.7783 370.463 87.1834 377.687 81.3755 388.121C76.0143 397.352 64.8453 415.813 55.91 429.057C47.4215 442.301 35.359 461.564 29.5511 471.598L18.382 490.059L32.2316 490.46C39.8266 490.46 51.4424 488.453 58.1438 485.243C64.3985 482.434 77.3546 478.42 87.1834 476.815L104.607 474.006L97.0121 484.44C79.1416 508.921 94.3316 510.928 152.411 492.868C177.876 484.842 202.001 477.216 205.575 475.21C209.149 473.604 217.638 471.196 224.786 469.591C235.955 467.183 236.849 467.986 236.849 480.427C236.849 496.48 239.976 500.092 249.805 495.276C256.506 491.664 312.798 471.196 315.479 471.196C316.372 471.196 315.032 476.012 312.351 481.631C310.118 487.651 308.777 493.269 310.118 494.072C314.585 498.085 389.195 481.631 430.743 467.584C454.869 459.156 437.445 455.946 411.979 463.972C398.13 468.788 371.771 475.611 353.9 479.223L321.287 486.447L324.414 477.618C326.201 473.203 328.435 466.782 329.328 463.972C332.009 458.354 316.819 457.15 310.564 462.768C307.884 464.374 292.247 470.795 275.717 476.414L245.337 486.848L245.784 478.019C248.018 453.538 243.103 453.538 170.281 477.216C106.841 498.085 100.139 498.888 107.288 486.848C120.244 465.578 96.1186 461.163 55.91 476.815C33.5719 486.045 31.3381 486.045 31.3381 479.624C31.3381 475.21 38.9331 469.19 50.5489 463.972C60.8244 459.156 91.2042 443.103 118.01 428.254L166.707 400.964L179.663 362.838C187.258 341.968 199.767 307.053 207.362 285.381C215.404 264.111 220.318 246.452 218.085 246.452C216.298 246.452 214.511 244.446 214.511 242.038C214.511 239.63 217.638 238.426 221.212 240.031C228.807 242.439 241.316 232.406 241.316 223.978C241.316 218.359 211.383 197.089 182.344 182.24C167.601 174.614 165.367 174.614 159.112 180.634Z" fill="#985EFF"/>
</g>
<defs>
<filter id="filter0_f_821_183" x="0.451149" y="-38.1929" width="450.358" height="551.589" filterUnits="userSpaceOnUse" color-interpolation-filters="sRGB">
<feFlood flood-opacity="0" result="BackgroundImageFix"/>
<feBlend mode="normal" in="SourceGraphic" in2="BackgroundImageFix" result="shape"/>
<feGaussianBlur stdDeviation="4.27443" result="effect1_foregroundBlur_821_183"/>
</filter>
</defs>
</svg>
