<svg width="558" height="265" viewBox="0 0 558 265" fill="none" xmlns="http://www.w3.org/2000/svg">
<g opacity="0.1" filter="url(#filter0_f_821_88)">
<path d="M33.8727 269.785L-140.119 192.022V162.066L33.8727 84.5077V124.723L-91.6971 173.966L-102.572 177.454L-91.6971 181.147L33.8727 229.57V269.785ZM154.518 190.175V310H116.56V11.2587H213.405C226.81 11.5322 239.463 13.6524 251.363 17.6192C263.4 21.586 273.933 27.331 282.961 34.8543C291.989 42.3775 299.101 51.679 304.299 62.7587C309.634 73.8384 312.301 86.5595 312.301 100.922C312.301 115.285 309.634 128.006 304.299 139.085C299.101 150.028 291.989 159.261 282.961 166.785C273.933 174.308 263.4 180.053 251.363 184.02C239.463 187.987 226.81 190.038 213.405 190.175H154.518ZM154.518 158.988H213.405C222.159 158.851 230.23 157.483 237.616 154.884C245.002 152.149 251.431 148.319 256.903 143.394C262.374 138.47 266.615 132.52 269.624 125.544C272.77 118.431 274.343 110.36 274.343 101.332C274.343 92.3046 272.77 84.1658 269.624 76.9161C266.615 69.6664 262.443 63.511 257.108 58.4499C251.637 53.3888 245.139 49.4904 237.616 46.7547C230.23 44.019 222.159 42.5827 213.405 42.4459H154.518V158.988ZM366.264 269.58V230.185L499.015 180.121L511.325 176.633L499.015 172.735L366.264 123.492V84.3026L547.437 161.86V191.817L366.264 269.58Z" fill="#985EFF"/>
</g>
<defs>
<filter id="filter0_f_821_88" x="-150.622" y="0.755776" width="708.562" height="319.747" filterUnits="userSpaceOnUse" color-interpolation-filters="sRGB">
<feFlood flood-opacity="0" result="BackgroundImageFix"/>
<feBlend mode="normal" in="SourceGraphic" in2="BackgroundImageFix" result="shape"/>
<feGaussianBlur stdDeviation="5.25144" result="effect1_foregroundBlur_821_88"/>
</filter>
</defs>
</svg>
