<svg width="97" height="115" viewBox="0 0 97 115" fill="none" xmlns="http://www.w3.org/2000/svg">
<mask id="path-1-inside-1_582_105" fill="white">
<path d="M33.3407 26.4131L29.587 14.7539L41.2462 11.0001L44.9999 22.6594L33.3407 26.4131Z"/>
</mask>
<path d="M29.587 14.7539L29.2805 13.802L28.3286 14.1084L28.6351 15.0603L29.587 14.7539ZM34.2926 26.1066L30.5389 14.4474L28.6351 15.0603L32.3888 26.7195L34.2926 26.1066ZM29.8934 15.7057L41.5527 11.952L40.9397 10.0482L29.2805 13.802L29.8934 15.7057Z" fill="#539EF4" mask="url(#path-1-inside-1_582_105)"/>
<path d="M32.9119 104.626C39.3129 104.378 54.9727 101.679 63.5554 91.9889C76.4884 77.3866 75.2271 57.7223 63.627 42.0403C54.5202 29.729 31.1903 15.2311 31.1903 15.2311" stroke="#539EF4"/>
</svg>
