<svg width="94" height="121" viewBox="0 0 94 121" fill="none" xmlns="http://www.w3.org/2000/svg">
<mask id="path-1-inside-1_605_28" fill="white">
<path d="M70.0913 25.4131L73.845 13.7539L62.1858 10.0001L58.4321 21.6594L70.0913 25.4131Z"/>
</mask>
<path d="M73.845 13.7539L74.1515 12.802L75.1034 13.1084L74.7969 14.0603L73.845 13.7539ZM69.1394 25.1066L72.8932 13.4474L74.7969 14.0603L71.0432 25.7195L69.1394 25.1066ZM73.5386 14.7057L61.8793 10.952L62.4923 9.04825L74.1515 12.802L73.5386 14.7057Z" fill="#8C2E2E" mask="url(#path-1-inside-1_605_28)"/>
<path d="M47.4321 112C47.4321 112 35.8168 103.332 31.432 95.5C20.9204 76.7246 28.2049 56.7225 39.805 41.0404C48.9118 28.7291 72.2418 14.2313 72.2418 14.2313" stroke="#8C2E2E"/>
</svg>
